<?xml version="1.0" encoding="UTF-8" standalone="no"?>
<svg
   xmlns:dc="http://purl.org/dc/elements/1.1/"
   xmlns:cc="http://creativecommons.org/ns#"
   xmlns:rdf="http://www.w3.org/1999/02/22-rdf-syntax-ns#"
   xmlns:svg="http://www.w3.org/2000/svg"
   xmlns="http://www.w3.org/2000/svg"
   xmlns:sodipodi="http://sodipodi.sourceforge.net/DTD/sodipodi-0.dtd"
   xmlns:inkscape="http://www.inkscape.org/namespaces/inkscape"
   width="348.22635pt"
   height="114.20466pt"
   viewBox="0 0 348.22635 114.20466"
   version="1.1"
   id="svg20"
   sodipodi:docname="balotologo.svg"
   inkscape:version="0.92.4 (5da689c313, 2019-01-14)">
  <metadata
     id="metadata26">
    <rdf:RDF>
      <cc:Work
         rdf:about="">
        <dc:format>image/svg+xml</dc:format>
        <dc:type
           rdf:resource="http://purl.org/dc/dcmitype/StillImage" />
        <dc:title></dc:title>
      </cc:Work>
    </rdf:RDF>
  </metadata>
  <defs
     id="defs24" />
  <sodipodi:namedview
     pagecolor="#000000"
     bordercolor="#666666"
     borderopacity="1"
     objecttolerance="10"
     gridtolerance="10"
     guidetolerance="10"
     inkscape:pageopacity="0"
     inkscape:pageshadow="2"
     inkscape:window-width="1920"
     inkscape:window-height="1000"
     id="namedview22"
     showgrid="false"
     inkscape:zoom="0.64"
     inkscape:cx="270.66413"
     inkscape:cy="75.336921"
     inkscape:window-x="-11"
     inkscape:window-y="35"
     inkscape:window-maximized="1"
     inkscape:current-layer="svg20" />
  <g
     id="#1601c8ff"
     transform="translate(-58.164964,-20.870132)" />
  <g
     id="#fcfefeff"
     transform="translate(-58.164964,-20.870132)">
    <path
       d="m 83.78,21.5 c 4.1,-1.13 9.14,-0.8 12.1,2.63 3.75,3.52 2.95,9.08 2.91,13.72 3.1,-3.98 5.62,-8.4 8.96,-12.18 4.71,-5.42 14.37,-4.67 18.39,1.2 2.37,3 1.63,7.01 1.68,10.55 79.08,0.14 158.15,0 237.23,0.09 8.96,-0.08 17.94,2.87 25.07,8.32 7.85,5.84 13.21,14.75 15.32,24.26 2.84,12.78 -1.14,26.76 -10.1,36.27 -7.4,8.21 -18.3,12.89 -29.29,13.21 -76.98,0.02 -153.97,-0.1 -230.95,0.06 -7.34,9.4 -18.95,16.03 -31.11,15.35 C 87.13,135.51 71.43,122.57 67.5,106.38 65.1,98.35 67.73,89.94 66.06,81.82 63.62,69.58 61.48,57.27 59.05,45.02 58.46,42 57.62,38.77 58.83,35.78 c 1.28,-3.99 5,-6.98 9.14,-7.51 3.01,-0.22 5.88,0.88 8.74,1.66 1.56,-3.33 3.55,-6.88 7.07,-8.43 m -2.58,6.55 c -2.57,6.07 -1.05,12.83 -2.17,19.17 -1.59,-4.88 -0.78,-11.43 -5.59,-14.61 -5.35,-3.82 -13.38,2.02 -11.97,8.25 2.49,13.13 5.12,26.24 7.33,39.43 3.27,-3.31 5.69,-7.3 8.41,-11.05 5.29,-7.38 10.44,-14.87 15.76,-22.23 1.22,-1.78 2.72,-3.64 2.63,-5.93 0.08,-3.87 0.39,-7.79 -0.16,-11.64 -1.48,-6.25 -11.61,-7.3 -14.24,-1.39 m 26.5,2.64 c -9.78,14.53 -19.88,28.84 -29.86,43.24 -3.16,4.7 -6.13,9.68 -7.47,15.23 -2.77,11.17 0.8,23.52 8.62,31.86 9.15,9.99 24.36,13.5 37.04,8.94 11.31,-4.06 20.19,-14.3 22.49,-26.11 0.48,-4.21 0.42,-8.49 0.06,-12.71 -0.77,-3.42 -4.29,-4.98 -6.93,-6.77 0.66,-2.89 1.77,-6.24 -0.17,-8.9 -5.18,-7.96 -14.58,-11.63 -23.42,-13.85 4.81,-7.32 9.97,-14.4 14.88,-21.66 2.21,-2.88 2.38,-6.84 1.34,-10.21 -1.59,-2.92 -4.87,-5 -8.25,-4.65 -3.74,-0.26 -6.43,2.79 -8.33,5.59 m 19.48,8.67 c -4.91,6.65 -9.56,13.49 -14.1,20.39 8.13,2.61 16.18,6.88 21.04,14.15 1.69,2.48 1.02,5.64 1.61,8.44 1.95,2.94 5.27,5.07 6.08,8.69 1.8,8.86 -1.15,17.76 -4.76,25.77 77.65,0.09 155.3,0.01 232.95,0.03 8,-0.29 15.47,-4.25 21.4,-9.43 8.28,-7.35 12.87,-18.4 13.08,-29.39 C 403.98,66.41 398.59,54.8 389.21,47.77 382.1,42.21 373.05,39.36 364.06,39.39 285.1,39.4 206.14,39.4 127.18,39.36 Z"
       id="path3"
       inkscape:connector-curvature="0"
       style="opacity:1;fill:#fcfefe;stroke:#fcfefe;stroke-width:0.09375" />
    <path
       d="m 150.5,50.55 c 8.44,-0.12 16.89,-0.13 25.33,-0.04 6.26,0.07 12.22,4.36 14.07,10.38 1.87,4.37 -0.15,8.99 -1.94,13.01 3.55,3.62 7.19,7.79 7.56,13.1 1.22,9.07 -6.23,18.33 -15.44,18.68 -9.87,0.05 -19.74,0.05 -29.6,-0.08 -0.05,-18.35 -0.06,-36.7 0.02,-55.05 m 10.73,11.16 c -0.01,3.01 0,6.01 0.03,9.01 4.84,-0.07 9.71,0.3 14.54,-0.15 4.03,-0.64 4.02,-7.54 0.17,-8.46 -4.86,-0.98 -9.83,-0.33 -14.74,-0.4 m 0.04,18.58 c -0.06,4.77 -0.09,9.53 -0.01,14.3 6.08,-0.15 12.22,0.47 18.26,-0.35 6.29,-1.86 5.54,-12.28 -0.68,-13.71 -5.84,-0.54 -11.72,-0.09 -17.57,-0.24 z"
       id="path5"
       inkscape:connector-curvature="0"
       style="opacity:1;fill:#fcfefe;stroke:#fcfefe;stroke-width:0.09375" />
    <path
       d="m 315.47,50.49 c 3.45,-0.04 6.91,-0.05 10.36,-0.03 0.31,3.26 0.51,6.53 0.52,9.8 3.43,0.02 6.86,0.06 10.3,0.11 0.03,3.49 0.03,6.99 0.01,10.48 -3.41,0.56 -6.87,0.74 -10.33,0.69 0.22,5.51 -0.63,11.16 0.57,16.59 2.85,6.28 10.33,7.63 16.54,7.19 0.16,3.41 0.5,6.87 -0.35,10.23 -4.55,0.16 -9.36,0.72 -13.64,-1.23 -7.9,-3.44 -14.26,-11.4 -14.08,-20.27 0.04,-11.19 -0.1,-22.37 0.1,-33.56 z"
       id="path7"
       inkscape:connector-curvature="0"
       style="opacity:1;fill:#fcfefe;stroke:#fcfefe;stroke-width:0.09375" />
    <path
       d="m 243.27,51.2 c 3.45,-0.69 6.98,-0.81 10.5,-0.65 1.17,11.8 0.06,23.66 0.67,35.49 0.04,3.72 2.86,7.08 6.35,8.17 3.28,0.77 6.81,0.78 9.95,-0.53 -2.34,-4.93 -3.43,-10.59 -2.02,-15.95 2.16,-10.04 11.89,-18.23 22.33,-17.57 12.75,-0.19 23.96,12.09 22.53,24.8 -0.88,13.48 -15.42,23.99 -28.51,20.12 -5.97,-0.89 -9.66,-5.8 -14.04,-9.33 -0.46,3.28 -0.42,6.59 -0.28,9.9 -3.55,0.05 -7.11,0.3 -10.63,-0.16 -9.45,-1.75 -16.93,-10.81 -16.86,-20.42 0,-11.29 0.01,-22.58 0.01,-33.87 m 43.17,20.48 c -9.23,3.12 -9.95,17.94 -1.19,22.07 7.22,3.7 16.99,-1.45 17.57,-9.62 1.01,-8.52 -8.42,-15.55 -16.38,-12.45 z"
       id="path9"
       inkscape:connector-curvature="0"
       style="opacity:1;fill:#fcfefe;stroke:#fcfefe;stroke-width:0.09375" />
    <path
       d="m 201.1,69.09 c 4.9,-6.64 13.7,-9.99 21.79,-8.66 10.22,1.62 18.69,11.1 18.8,21.51 0.01,7.87 0.03,15.75 -0.03,23.63 -4.04,0.07 -8.73,1.07 -11.89,-2.15 -5.32,1.92 -11.19,3.24 -16.74,1.49 -9.04,-2.35 -15.77,-10.82 -16.77,-20 -0.4,-5.62 1.53,-11.3 4.84,-15.82 m 14.33,2.52 c -7.57,1.82 -10.43,11.97 -6.25,18.12 3.5,5.78 12.09,6.6 17.35,2.87 5.81,-4.56 5.88,-14.61 0.05,-19.18 -3.12,-2.47 -7.42,-2.71 -11.15,-1.81 z"
       id="path11"
       inkscape:connector-curvature="0"
       style="opacity:1;fill:#fcfefe;stroke:#fcfefe;stroke-width:0.09375" />
    <path
       d="m 359.53,60.65 c 13.03,-3.31 26.65,7.35 28,20.4 1.03,12.84 -10.51,25.4 -23.54,24.69 -10.5,0.21 -20.37,-8.27 -21.61,-18.71 -0.35,-4.22 -0.45,-8.63 1.09,-12.65 2.6,-6.89 8.83,-12.25 16.06,-13.73 m 0.98,10.99 c -3.54,1 -6.08,4.16 -7.31,7.5 -2.73,6.93 2.99,16.18 10.74,15.67 7.6,0.84 14.52,-7.25 12.54,-14.64 -1.95,-6.55 -9.33,-10.91 -15.97,-8.53 z"
       id="path13"
       inkscape:connector-curvature="0"
       style="opacity:1;fill:#fcfefe;stroke:#fcfefe;stroke-width:0.09375" />
    <path
       d="m 87.26,93.94 c 1.22,-9.38 11.54,-16.42 20.72,-14.06 5.79,1.23 9.49,6.36 14.6,8.97 -1.43,5.03 0.02,10.55 -2.39,15.33 -2.79,6.19 -9.39,10.53 -16.23,10.3 -10.36,0.06 -18.79,-10.4 -16.7,-20.54 m 5.41,-5.2 c -4.66,6.6 -2.62,17.13 4.84,20.77 5.95,3.62 14.16,1.68 18.13,-3.96 3.47,-4.17 3.19,-9.8 3,-14.88 -3.45,-2.65 -6.42,-6.25 -10.73,-7.52 -5.59,-1.75 -11.96,0.88 -15.24,5.59 z"
       id="path15"
       inkscape:connector-curvature="0"
       style="opacity:1;fill:#fcfefe;stroke:#fcfefe;stroke-width:0.09375" />
    <path
       d="m 100.41,88.5 c 5.38,-3.3 12.8,1.42 13.23,7.41 0.87,5.53 -4.26,10.77 -9.7,10.69 -3.92,-0.59 -8.01,-3.34 -8.69,-7.49 -0.92,-4.16 1.11,-8.95 5.16,-10.61 z"
       id="path17"
       inkscape:connector-curvature="0"
       style="opacity:1;fill:#fcfefe;stroke:#fcfefe;stroke-width:0.09375" />
  </g>
</svg>
