<?xml version="1.0" encoding="UTF-8" standalone="no"?>
<svg
   xmlns:dc="http://purl.org/dc/elements/1.1/"
   xmlns:cc="http://creativecommons.org/ns#"
   xmlns:rdf="http://www.w3.org/1999/02/22-rdf-syntax-ns#"
   xmlns:svg="http://www.w3.org/2000/svg"
   xmlns="http://www.w3.org/2000/svg"
   xmlns:sodipodi="http://sodipodi.sourceforge.net/DTD/sodipodi-0.dtd"
   xmlns:inkscape="http://www.inkscape.org/namespaces/inkscape"
   width="502.50003pt"
   height="502.5pt"
   viewBox="0 0 502.50003 502.5"
   version="1.1"
   id="svg586"
   sodipodi:docname="logotest.svg"
   inkscape:version="0.92.4 (5da689c313, 2019-01-14)">
  <metadata
     id="metadata592">
    <rdf:RDF>
      <cc:Work
         rdf:about="">
        <dc:format>image/svg+xml</dc:format>
        <dc:type
           rdf:resource="http://purl.org/dc/dcmitype/StillImage" />
      </cc:Work>
    </rdf:RDF>
  </metadata>
  <defs
     id="defs590" />
  <sodipodi:namedview
     pagecolor="#ffffff"
     bordercolor="#666666"
     borderopacity="1"
     objecttolerance="10"
     gridtolerance="10"
     guidetolerance="10"
     inkscape:pageopacity="0"
     inkscape:pageshadow="2"
     inkscape:window-width="1920"
     inkscape:window-height="1000"
     id="namedview588"
     showgrid="false"
     inkscape:zoom="0.64"
     inkscape:cx="160.47683"
     inkscape:cy="430.88545"
     inkscape:window-x="-11"
     inkscape:window-y="35"
     inkscape:window-maximized="1"
     inkscape:current-layer="svg586"
     inkscape:snap-grids="false"
     inkscape:snap-to-guides="true"
     inkscape:snap-object-midpoints="false" />
  <ellipse
     style="opacity:1;fill:#214478;fill-opacity:1;stroke:#fde1b1;stroke-width:0.1900373;stroke-miterlimit:4;stroke-dasharray:none;stroke-opacity:1;paint-order:stroke fill markers"
     id="path1653"
     cx="251.25"
     cy="251.24998"
     rx="251.15498"
     ry="251.15497" />
  <circle
     style="opacity:1;fill:#162d50;fill-opacity:1;stroke:#fde1b1;stroke-width:0.17869177;stroke-miterlimit:4;stroke-dasharray:none;stroke-opacity:1;paint-order:stroke fill markers"
     id="path1653-8"
     cx="251.25"
     cy="251.24998"
     r="236.16064" />
  <g
     id="g1649"
     transform="translate(6.182797,7.7278019)"
     style="fill:#ffffff;fill-opacity:1;stroke:#fdffff;stroke-opacity:1">
    <g
       id="#ffffffff"
       style="fill:#ffffff;fill-opacity:1;stroke:#fdffff;stroke-opacity:1">
      <path
         id="path64"
         d="m 181.72,142.67 c 7.05,-1.05 14.19,-0.5 21.29,-0.64 6.15,-0.15 12.24,0.84 18.32,1.62 8.5,1.56 16.96,3.45 25.15,6.26 4.94,1.89 9.67,4.27 14.29,6.82 -2.57,7.09 -5.19,14.15 -7.66,21.27 -1.7,4.69 -3.4,9.37 -5.09,14.06 -1.92,-0.98 -3.87,-1.92 -5.83,-2.81 -13.6,-6.42 -28.73,-9.7 -43.77,-9.1 -6.64,0.43 -13.32,1.11 -19.68,3.2 -7.51,2.43 -14.61,6.6 -19.73,12.69 -6.68,7.98 -10.82,17.92 -12.66,28.12 -1.89,8.8 -1.84,17.86 -1.54,26.81 0.13,5.72 1.14,11.39 2.6,16.92 0.58,2.59 1.35,5.14 2.29,7.63 3.23,8.07 7.96,15.75 14.79,21.28 6.26,5.05 13.74,8.56 21.67,9.97 3.99,0.6 8.01,1.09 12.04,1.3 0.6,0.01 1.8,0.04 2.4,0.06 6.32,-0.33 12.63,-0.76 18.93,-1.42 -0.05,-3.1 -0.1,-6.19 -0.08,-9.27 0.12,-4.94 0.04,-9.88 -0.01,-14.82 0.02,-5.74 0.06,-11.48 0,-17.21 0.14,-9.14 0.1,-18.27 0,-27.41 1.49,0 2.99,0.01 4.49,0.02 13.26,-0.08 26.53,0.23 39.79,-0.18 0,0.26 0.01,0.78 0.01,1.04 -0.11,23.01 -0.29,46.03 -0.04,69.05 0.01,0.28 0.01,0.85 0.01,1.13 -0.15,8.58 -0.25,17.18 0.09,25.76 -11.93,4.63 -24.67,6.68 -37.23,8.85 -14.04,1.56 -28.16,1.48 -42.26,1.22 -5.23,-0.82 -10.51,-1.4 -15.69,-2.52 -7.08,-1.74 -14.02,-4.09 -20.59,-7.25 -10.78,-5.28 -20.51,-12.8 -27.93,-22.26 -0.46,-0.57 -0.9,-1.14 -1.34,-1.71 -2.51,-3.42 -4.87,-6.96 -6.92,-10.68 -1.66,-3.22 -3.26,-6.48 -4.67,-9.82 -3.9,-9.75 -6.33,-20.04 -7.49,-30.46 -0.19,-1.43 -0.36,-2.85 -0.5,-4.28 -0.23,-7.58 -0.1,-15.16 -0.09,-22.74 0.74,-5.99 1.37,-12.01 2.76,-17.89 2.68,-11.89 7.57,-23.27 14.33,-33.4 0.6,-0.96 1.21,-1.9 1.82,-2.84 4.17,-4.95 8.11,-10.15 13.16,-14.26 9.84,-8.76 21.84,-14.7 34.31,-18.74 1.21,-0.3 2.42,-0.61 3.63,-0.89 4.19,-0.96 8.4,-1.78 12.63,-2.48 z"
         inkscape:connector-curvature="0"
         style="opacity:1;fill:#ffffff;fill-opacity:1;stroke:#fdffff;stroke-width:0.09375;stroke-opacity:1" />
      <path
         id="path66"
         d="m 355.1,293.39 c 6.39,-2.98 13.85,-3.13 20.56,-1.18 0.98,0.44 1.96,0.91 2.92,1.4 1.3,0.69 2.57,1.44 3.86,2.16 5.15,4.91 8.21,11.76 8.56,18.86 0.03,1.59 0.05,3.18 0.1,4.78 -0.91,5.59 -2.56,11.35 -6.52,15.59 -1.12,1.07 -2.3,2.08 -3.47,3.09 l -0.7,0.58 c -6.21,3.65 -13.62,3.89 -20.58,2.94 -0.06,-0.03 -0.19,-0.08 -0.25,-0.11 -5.77,-1.94 -11.26,-5.51 -14.04,-11.1 -3.52,-6.49 -3.83,-14.23 -2.42,-21.35 0.5,-1.64 1.06,-3.25 1.71,-4.83 1.31,-2.69 3.12,-5.09 5.19,-7.24 1.62,-1.29 3.35,-2.45 5.08,-3.59 m 7.74,7.34 c -5.05,1.52 -7.67,6.6 -8.64,11.43 -0.28,2.77 -0.25,5.57 -0.15,8.36 0.45,1.41 0.81,2.85 1.21,4.29 1.5,3.21 4.11,7.19 8.01,7.18 l -0.56,0.33 c 3.51,1.28 7.34,0.53 10.48,-1.36 l 0.28,0.07 c 6.38,-5.02 6.28,-13.83 5.33,-21.13 l -0.34,1.17 c -0.16,-3.4 -2.04,-6.76 -4.8,-8.74 -3.16,-2.05 -7.22,-3.14 -10.82,-1.6 z"
         inkscape:connector-curvature="0"
         style="opacity:1;fill:#ffffff;fill-opacity:1;stroke:#fdffff;stroke-width:0.09375;stroke-opacity:1" />
    </g>
    <g
       id="#fffffeff"
       style="fill:#ffffff;fill-opacity:1;stroke:#fdffff;stroke-opacity:1">
      <path
         id="path356"
         d="m 305.17,298.69 c 8.45,-9.13 22.76,-9.65 33.53,-4.71 l 0.64,0.43 c -0.08,0.29 -0.25,0.86 -0.33,1.14 -0.85,2.55 -1.86,5.04 -2.77,7.57 -5.59,-2.66 -12.29,-4.37 -18.19,-1.62 -1.71,1.1 -3.25,2.46 -4.54,4.04 -0.5,1.01 -0.97,2.06 -1.38,3.13 -1.92,5.84 -1.6,12.46 1.09,18 2.18,4.28 7.16,6.3 11.77,6.35 4.16,-0.17 8.31,-1.1 12.04,-2.99 1.1,2.87 2.13,5.76 3.2,8.64 -6.58,3.14 -13.84,3.72 -21.01,3.36 -2.37,-0.53 -4.73,-1.09 -7.01,-1.91 -4.75,-2 -8.17,-6.03 -10.69,-10.39 -2.74,-7.86 -3.19,-16.65 -0.23,-24.52 0.2,-0.37 0.6,-1.09 0.8,-1.46 0.97,-1.72 2.05,-3.38 3.08,-5.06 z"
         inkscape:connector-curvature="0"
         style="opacity:1;fill:#ffffff;fill-opacity:1;stroke:#fdffff;stroke-width:0.09375;stroke-opacity:1" />
      <path
         id="path358"
         d="m 286.37,330.22 c 2.37,-1.99 5.76,-1.3 8.43,-0.33 1.42,1.48 2.59,3.27 2.29,5.42 -0.02,0.86 -0.07,2.56 -0.09,3.41 -2.27,2.77 -5.93,4.32 -9.38,2.87 -4.41,-1.81 -5.05,-8.63 -1.25,-11.37 z"
         inkscape:connector-curvature="0"
         style="opacity:1;fill:#ffffff;fill-opacity:1;stroke:#fdffff;stroke-width:0.09375;stroke-opacity:1" />
    </g>
  </g>
</svg>
