<?xml version="1.0" encoding="UTF-8" standalone="no"?>
<!-- Created with Inkscape (http://www.inkscape.org/) -->

<svg
   xmlns:dc="http://purl.org/dc/elements/1.1/"
   xmlns:cc="http://creativecommons.org/ns#"
   xmlns:rdf="http://www.w3.org/1999/02/22-rdf-syntax-ns#"
   xmlns:svg="http://www.w3.org/2000/svg"
   xmlns="http://www.w3.org/2000/svg"
   xmlns:sodipodi="http://sodipodi.sourceforge.net/DTD/sodipodi-0.dtd"
   xmlns:inkscape="http://www.inkscape.org/namespaces/inkscape"
   width="122.84652mm"
   height="50.443119mm"
   viewBox="0 0 122.84652 50.443118"
   version="1.1"
   id="svg8"
   inkscape:version="0.92.4 (5da689c313, 2019-01-14)"
   sodipodi:docname="splash_logo2.svg">
  <defs
     id="defs2">
    <clipPath
       clipPathUnits="userSpaceOnUse"
       id="clipPath846">
      <g
         id="use848"
         inkscape:label="Clip">
        <g
           id="g862"
           transform="translate(-3.8146993e-8,31.797744)">
          <text
             id="text852"
             y="154.98497"
             x="1.2748057"
             style="font-style:normal;font-variant:normal;font-weight:bold;font-stretch:normal;font-size:22.93055534px;line-height:1.25;font-family:Ubuntu;-inkscape-font-specification:'Ubuntu, Bold';font-variant-ligatures:normal;font-variant-caps:normal;font-variant-numeric:normal;font-feature-settings:normal;text-align:start;letter-spacing:0px;word-spacing:0px;writing-mode:lr-tb;text-anchor:start;fill:#000000;fill-opacity:1;stroke:none;stroke-width:0.26458332"
             xml:space="preserve"><tspan
               style="font-style:normal;font-variant:normal;font-weight:bold;font-stretch:normal;font-size:22.93055534px;font-family:Ubuntu;-inkscape-font-specification:'Ubuntu, Bold';font-variant-ligatures:normal;font-variant-caps:normal;font-variant-numeric:normal;font-feature-settings:normal;text-align:start;writing-mode:lr-tb;text-anchor:start;fill:#ffffff;fill-opacity:1;stroke-width:0.26458332"
               y="154.98497"
               x="1.2748057"
               id="tspan850"
               sodipodi:role="line">Sakura Cards</tspan></text>
          <text
             id="text856"
             y="164.521"
             x="49.261139"
             style="font-style:normal;font-variant:normal;font-weight:bold;font-stretch:normal;font-size:22.93055534px;line-height:1.25;font-family:Ubuntu;-inkscape-font-specification:'Ubuntu, Bold';font-variant-ligatures:normal;font-variant-caps:normal;font-variant-numeric:normal;font-feature-settings:normal;text-align:start;letter-spacing:0px;word-spacing:0px;writing-mode:lr-tb;text-anchor:start;fill:#000000;fill-opacity:1;stroke:none;stroke-width:0.26458332"
             xml:space="preserve"><tspan
               style="font-style:normal;font-variant:normal;font-weight:bold;font-stretch:normal;font-size:7.05555534px;font-family:Ubuntu;-inkscape-font-specification:'Ubuntu, Bold';font-variant-ligatures:normal;font-variant-caps:normal;font-variant-numeric:normal;font-feature-settings:normal;text-align:start;writing-mode:lr-tb;text-anchor:start;fill:#ffffff;stroke-width:0.26458332"
               y="164.521"
               x="49.261139"
               id="tspan854"
               sodipodi:role="line">GEOJORG CO.</tspan></text>
          <g
             id="g860"
             transform="matrix(0.21371474,0,0,0.21371474,18.909847,42.168018)">
            <path
               id="path858"
               d="m 196.31,125.27 c 13.83,-11 31.12,-17.56 48.76,-18.5 20.44,-1.26 41.28,5.07 57.49,17.59 15.67,11.94 27.06,29.45 31.39,48.69 0.43,0.9 0.19,2.56 1.51,2.71 1.96,-1.92 3.3,-4.36 4.6,-6.75 2.68,-5.34 5.92,-10.39 8.08,-15.98 1.2,-3.1 2.82,-6.45 6.15,-7.68 2.58,-1.35 5.79,-0.45 7.6,1.74 4.35,4.68 4.52,11.77 2.55,17.55 -0.55,2.18 -2.3,4.55 -0.77,6.72 4.14,6.58 1.81,15.11 -2.62,20.91 1.88,4.29 1.65,9.56 -1.76,13.04 -2.33,3.14 -6.25,3.93 -9.63,5.34 -1.84,2.15 -3.67,4.87 -6.82,4.97 -3.63,0.46 -6.16,-2.45 -8.4,-4.81 -4.12,19.26 -14.91,37.08 -30.38,49.32 -8.47,6.9 -18.39,11.81 -28.71,15.28 0,1.88 0.4,3.74 0.45,5.62 -0.25,2.65 -1.99,4.8 -3.38,6.96 2.52,4.45 5.6,8.77 6.36,13.96 2.1,10.06 -1.32,20.97 -8.75,28.05 -2.46,2.37 -5.54,3.9 -8.35,5.78 -1.27,0.56 -1.21,2.07 -1.25,3.22 -0.13,6.41 -0.92,12.79 -0.51,19.2 3.01,0.13 7.6,-0.5 8.47,3.4 0.6,4.57 1.56,9.51 0.13,14 -2.04,3.99 -7.79,0.61 -9.86,4.33 3.21,1.14 8.53,-0.75 10.03,3.14 0.33,5.28 0.25,10.62 -0.06,15.91 -0.56,2.96 -5.38,1.23 -6.16,4 -0.68,3.49 -1.15,8.03 -5.11,9.37 -6.25,1.42 -13.08,1.68 -19.13,-0.73 -2.72,-1.09 -5.99,-3.19 -5.54,-6.58 0.69,-21.02 0.31,-42.05 0.45,-63.08 -0.1,-2.67 0.05,-5.48 -1.05,-7.97 -1.78,-2.57 -4.9,-3.82 -6.69,-6.39 -3.18,-4.71 -6.11,-9.87 -6.52,-15.66 -1.24,-7.59 1.07,-15.37 5.36,-21.64 1.71,-1.89 0.11,-4.14 -0.5,-6.11 -1.17,-2.89 -0.54,-6.14 1.1,-8.71 -22.57,-7.06 -42.18,-23.36 -52.4,-44.78 -3.12,-5.84 -4.45,-12.37 -7.05,-18.39 -1.92,1.91 -4.4,4.05 -7.34,3.14 -3.34,-0.46 -4.7,-4.37 -8.06,-4.8 -5.13,-1.09 -9.38,-5.45 -10.1,-10.69 -0.73,-3.15 0.94,-6.06 1.73,-9.01 -2.87,-4.08 -5.2,-8.8 -4.63,-13.95 -0.24,-3.25 2.92,-6.16 1.35,-9.33 -2.38,-5.53 -3.03,-12.05 -0.49,-17.64 1.32,-2.73 3.91,-5.29 7.16,-5.1 2.42,-0.15 4.51,1.47 5.69,3.45 5.22,8.47 7.96,18.55 15.12,25.72 4.1,-19.17 15.11,-36.7 30.49,-48.83 m 56.93,-7.04 c 5.74,11.12 9.52,23.15 15.4,34.2 1.62,3.49 5.72,4.76 9.3,4.8 5.32,0.11 10.64,0.13 15.95,0.57 6.28,0.58 12.61,0.05 18.89,0.83 -9.95,-23.31 -34.24,-39.65 -59.54,-40.4 m -66.4,40.63 c 6.6,-1.01 13.31,-0.34 19.92,-1.25 6.6,-0.78 13.91,0.67 19.85,-3 2.66,-3.24 4.13,-7.29 5.98,-11.02 3.42,-8.47 7.17,-16.81 11,-25.11 -24.35,1.64 -47.28,17.86 -56.75,40.38 m 128.82,9.5 c -7.75,9.01 -17.32,16.2 -25.52,24.77 -1.39,1.7 -3.04,3.49 -3.3,5.77 0.8,8.5 2.98,16.79 4.78,25.12 0.93,5.44 2.84,10.8 2.45,16.39 20.99,-16.25 29.9,-45.91 22.63,-71.27 -0.26,-0.2 -0.78,-0.59 -1.04,-0.78 M 180.55,188 c 0.11,18.98 8.28,38.15 22.75,50.59 1.26,-12.41 5.08,-24.37 6.96,-36.67 0.92,-4.45 -2.37,-8.05 -5.28,-10.93 -7.22,-6.99 -15.2,-13.2 -21.72,-20.9 -2.66,5.52 -2.52,11.91 -2.71,17.91 m 48.01,45.54 c -6.21,3.2 -11.03,8.62 -17.77,10.87 22.51,16.48 55.77,16.35 78.27,-0.07 -6.79,-1.43 -12.14,-6.04 -17.98,-9.46 -5.63,-3.33 -11.03,-7.04 -16.74,-10.23 -2.22,-1.06 -4.8,-2.7 -7.29,-1.5 -6.45,2.92 -12.6,6.48 -18.49,10.39 z"
               inkscape:connector-curvature="0"
               style="opacity:1;fill:#fffefe;stroke:#fffefe;stroke-width:0.09375" />
          </g>
        </g>
      </g>
    </clipPath>
  </defs>
  <sodipodi:namedview
     id="base"
     pagecolor="#000000"
     bordercolor="#666666"
     borderopacity="1.0"
     inkscape:pageopacity="0"
     inkscape:pageshadow="2"
     inkscape:zoom="1.4142136"
     inkscape:cx="322.39024"
     inkscape:cy="46.880915"
     inkscape:document-units="mm"
     inkscape:current-layer="layer1"
     showgrid="false"
     inkscape:window-width="1920"
     inkscape:window-height="1000"
     inkscape:window-x="-11"
     inkscape:window-y="35"
     inkscape:window-maximized="1" />
  <metadata
     id="metadata5">
    <rdf:RDF>
      <cc:Work
         rdf:about="">
        <dc:format>image/svg+xml</dc:format>
        <dc:type
           rdf:resource="http://purl.org/dc/dcmitype/StillImage" />
        <dc:title></dc:title>
      </cc:Work>
    </rdf:RDF>
  </metadata>
  <g
     inkscape:label="Capa 1"
     inkscape:groupmode="layer"
     id="layer1"
     transform="translate(-11.134944,-127.003)">
    <g
       aria-label="GEOJORG CO."
       style="font-style:normal;font-variant:normal;font-weight:bold;font-stretch:normal;font-size:22.93055534px;line-height:1.25;font-family:Ubuntu;-inkscape-font-specification:'Ubuntu, Bold';font-variant-ligatures:normal;font-variant-caps:normal;font-variant-numeric:normal;font-feature-settings:normal;text-align:start;letter-spacing:0px;word-spacing:0px;writing-mode:lr-tb;text-anchor:start;fill:#000000;fill-opacity:1;stroke:none;stroke-width:0.26458332"
       id="text817"
       transform="matrix(1.4009019,0,0,1.4457258,-29.088716,-106.51989)">
      <path
         d="m 52.210361,192.27591 q -0.769055,0 -1.114778,0.43039 -0.338666,0.42333 -0.338666,1.16416 0,0.35984 0.08467,0.65617 0.08467,0.28928 0.254,0.50094 0.169334,0.21167 0.423334,0.33162 0.254,0.11288 0.592666,0.11288 0.183445,0 0.310445,-0.007 0.134055,-0.007 0.232833,-0.0282 v -1.70039 h 1.100667 v 2.42005 q -0.197556,0.0776 -0.635,0.16228 -0.437445,0.0917 -1.0795,0.0917 -0.550334,0 -1.001889,-0.16933 -0.4445,-0.16933 -0.762,-0.49389 -0.3175,-0.32455 -0.493889,-0.79728 -0.169333,-0.47272 -0.169333,-1.0795 0,-0.61383 0.1905,-1.08655 0.1905,-0.47272 0.522111,-0.79728 0.331611,-0.33161 0.776111,-0.50094 0.451555,-0.16934 0.959555,-0.16934 0.345723,0 0.620889,0.0494 0.282222,0.0423 0.479778,0.10583 0.204611,0.0564 0.331611,0.11995 0.134056,0.0635 0.1905,0.0988 l -0.3175,0.88194 q -0.225778,-0.11994 -0.522111,-0.20461 -0.289278,-0.0917 -0.635,-0.0917 z"
         style="font-style:normal;font-variant:normal;font-weight:bold;font-stretch:normal;font-size:7.05555534px;font-family:Ubuntu;-inkscape-font-specification:'Ubuntu, Bold';font-variant-ligatures:normal;font-variant-caps:normal;font-variant-numeric:normal;font-feature-settings:normal;text-align:start;writing-mode:lr-tb;text-anchor:start;fill:#ffffff;stroke-width:0.26458332"
         id="path4617"
         inkscape:connector-curvature="0" />
      <path
         d="m 54.77274,196.31874 v -4.8895 h 3.302 v 0.92428 h -2.201333 v 0.95955 h 1.954389 v 0.90312 h -1.954389 v 1.17827 h 2.363611 v 0.92428 z"
         style="font-style:normal;font-variant:normal;font-weight:bold;font-stretch:normal;font-size:7.05555534px;font-family:Ubuntu;-inkscape-font-specification:'Ubuntu, Bold';font-variant-ligatures:normal;font-variant-caps:normal;font-variant-numeric:normal;font-feature-settings:normal;text-align:start;writing-mode:lr-tb;text-anchor:start;fill:#ffffff;stroke-width:0.26458332"
         id="path4619"
         inkscape:connector-curvature="0" />
      <path
         d="m 59.844913,193.87046 q 0,0.35984 0.08467,0.64911 0.09172,0.28928 0.254,0.50095 0.169333,0.20461 0.409222,0.3175 0.239889,0.11289 0.550333,0.11289 0.303389,0 0.543278,-0.11289 0.246944,-0.11289 0.409222,-0.3175 0.169333,-0.21167 0.254,-0.50095 0.09172,-0.28927 0.09172,-0.64911 0,-0.35983 -0.09172,-0.64911 -0.08467,-0.29633 -0.254,-0.50094 -0.162278,-0.21167 -0.409222,-0.32456 -0.239889,-0.11289 -0.543278,-0.11289 -0.310444,0 -0.550333,0.11995 -0.239889,0.11289 -0.409222,0.32455 -0.162278,0.20461 -0.254,0.50095 -0.08467,0.28928 -0.08467,0.64205 z m 3.732389,0 q 0,0.62795 -0.1905,1.10773 -0.183445,0.47272 -0.508,0.79727 -0.324556,0.3175 -0.776111,0.47978 -0.4445,0.16228 -0.959556,0.16228 -0.500944,0 -0.945444,-0.16228 -0.4445,-0.16228 -0.776111,-0.47978 -0.331612,-0.32455 -0.522112,-0.79727 -0.1905,-0.47978 -0.1905,-1.10773 0,-0.62794 0.197556,-1.10066 0.197556,-0.47978 0.529167,-0.80434 0.338666,-0.32455 0.776111,-0.48683 0.4445,-0.16228 0.931333,-0.16228 0.500944,0 0.945444,0.16228 0.4445,0.16228 0.776112,0.48683 0.331611,0.32456 0.522111,0.80434 0.1905,0.47272 0.1905,1.10066 z"
         style="font-style:normal;font-variant:normal;font-weight:bold;font-stretch:normal;font-size:7.05555534px;font-family:Ubuntu;-inkscape-font-specification:'Ubuntu, Bold';font-variant-ligatures:normal;font-variant-caps:normal;font-variant-numeric:normal;font-feature-settings:normal;text-align:start;writing-mode:lr-tb;text-anchor:start;fill:#ffffff;stroke-width:0.26458332"
         id="path4621"
         inkscape:connector-curvature="0" />
      <path
         d="m 66.9966,194.6748 q 0,0.35983 -0.08467,0.67733 -0.07761,0.3175 -0.282222,0.55739 -0.197556,0.23283 -0.543278,0.37394 -0.338667,0.13406 -0.860778,0.13406 -0.479778,0 -0.8255,-0.11289 -0.345722,-0.11994 -0.5715,-0.27517 l 0.366889,-0.85372 q 0.204611,0.11995 0.437444,0.21167 0.232834,0.0917 0.508,0.0917 0.402167,0 0.578556,-0.19756 0.176389,-0.19755 0.176389,-0.66322 v -3.18911 h 1.10067 z"
         style="font-style:normal;font-variant:normal;font-weight:bold;font-stretch:normal;font-size:7.05555534px;font-family:Ubuntu;-inkscape-font-specification:'Ubuntu, Bold';font-variant-ligatures:normal;font-variant-caps:normal;font-variant-numeric:normal;font-feature-settings:normal;text-align:start;writing-mode:lr-tb;text-anchor:start;fill:#ffffff;stroke-width:0.26458332"
         id="path4623"
         inkscape:connector-curvature="0" />
      <path
         d="m 68.981306,193.87046 q 0,0.35984 0.08467,0.64911 0.09172,0.28928 0.254,0.50095 0.169333,0.20461 0.409222,0.3175 0.239889,0.11289 0.550334,0.11289 0.303388,0 0.543277,-0.11289 0.246945,-0.11289 0.409223,-0.3175 0.169333,-0.21167 0.254,-0.50095 0.09172,-0.28927 0.09172,-0.64911 0,-0.35983 -0.09172,-0.64911 -0.08467,-0.29633 -0.254,-0.50094 -0.162278,-0.21167 -0.409223,-0.32456 -0.239889,-0.11289 -0.543277,-0.11289 -0.310445,0 -0.550334,0.11995 -0.239889,0.11289 -0.409222,0.32455 -0.162278,0.20461 -0.254,0.50095 -0.08467,0.28928 -0.08467,0.64205 z m 3.732389,0 q 0,0.62795 -0.1905,1.10773 -0.183444,0.47272 -0.508,0.79727 -0.324555,0.3175 -0.776111,0.47978 -0.4445,0.16228 -0.959555,0.16228 -0.500945,0 -0.945445,-0.16228 -0.4445,-0.16228 -0.776111,-0.47978 -0.331611,-0.32455 -0.522111,-0.79727 -0.1905,-0.47978 -0.1905,-1.10773 0,-0.62794 0.197556,-1.10066 0.197555,-0.47978 0.529166,-0.80434 0.338667,-0.32455 0.776111,-0.48683 0.4445,-0.16228 0.931334,-0.16228 0.500944,0 0.945444,0.16228 0.4445,0.16228 0.776111,0.48683 0.331611,0.32456 0.522111,0.80434 0.1905,0.47272 0.1905,1.10066 z"
         style="font-style:normal;font-variant:normal;font-weight:bold;font-stretch:normal;font-size:7.05555534px;font-family:Ubuntu;-inkscape-font-specification:'Ubuntu, Bold';font-variant-ligatures:normal;font-variant-caps:normal;font-variant-numeric:normal;font-feature-settings:normal;text-align:start;writing-mode:lr-tb;text-anchor:start;fill:#ffffff;stroke-width:0.26458332"
         id="path4625"
         inkscape:connector-curvature="0" />
      <path
         d="m 75.05658,191.3728 q 1.100667,0 1.686278,0.39511 0.585611,0.38805 0.585611,1.21355 0,0.51506 -0.239889,0.83961 -0.232833,0.3175 -0.677333,0.50095 0.148167,0.18344 0.310445,0.42333 0.162277,0.23284 0.3175,0.49389 0.162277,0.254 0.310444,0.53622 0.148167,0.27517 0.275167,0.54328 H 76.39008 q -0.134055,-0.23989 -0.275166,-0.48683 -0.134056,-0.24695 -0.282222,-0.47978 -0.141112,-0.23283 -0.282223,-0.43744 -0.141111,-0.21167 -0.282222,-0.381 h -0.543278 v 1.78505 h -1.100666 v -4.81894 q 0.359833,-0.0706 0.740833,-0.0988 0.388056,-0.0282 0.691444,-0.0282 z m 0.0635,0.93839 q -0.119944,0 -0.218722,0.007 -0.09172,0.007 -0.176389,0.0141 v 1.32645 h 0.310445 q 0.620889,0 0.889,-0.15523 0.268111,-0.15522 0.268111,-0.52916 0,-0.35984 -0.275167,-0.508 -0.268111,-0.15522 -0.797278,-0.15522 z"
         style="font-style:normal;font-variant:normal;font-weight:bold;font-stretch:normal;font-size:7.05555534px;font-family:Ubuntu;-inkscape-font-specification:'Ubuntu, Bold';font-variant-ligatures:normal;font-variant-caps:normal;font-variant-numeric:normal;font-feature-settings:normal;text-align:start;writing-mode:lr-tb;text-anchor:start;fill:#ffffff;stroke-width:0.26458332"
         id="path4627"
         inkscape:connector-curvature="0" />
      <path
         d="m 80.597948,192.27591 q -0.769056,0 -1.114778,0.43039 -0.338667,0.42333 -0.338667,1.16416 0,0.35984 0.08467,0.65617 0.08467,0.28928 0.254,0.50094 0.169333,0.21167 0.423333,0.33162 0.254,0.11288 0.592667,0.11288 0.183444,0 0.310444,-0.007 0.134056,-0.007 0.232834,-0.0282 v -1.70039 h 1.100666 v 2.42005 q -0.197555,0.0776 -0.635,0.16228 -0.437444,0.0917 -1.0795,0.0917 -0.550333,0 -1.001889,-0.16933 -0.4445,-0.16933 -0.762,-0.49389 -0.3175,-0.32455 -0.493888,-0.79728 -0.169334,-0.47272 -0.169334,-1.0795 0,-0.61383 0.1905,-1.08655 0.1905,-0.47272 0.522111,-0.79728 0.331611,-0.33161 0.776111,-0.50094 0.451556,-0.16934 0.959556,-0.16934 0.345722,0 0.620889,0.0494 0.282222,0.0423 0.479778,0.10583 0.204611,0.0564 0.331611,0.11995 0.134055,0.0635 0.1905,0.0988 l -0.3175,0.88194 q -0.225778,-0.11994 -0.522111,-0.20461 -0.289278,-0.0917 -0.635,-0.0917 z"
         style="font-style:normal;font-variant:normal;font-weight:bold;font-stretch:normal;font-size:7.05555534px;font-family:Ubuntu;-inkscape-font-specification:'Ubuntu, Bold';font-variant-ligatures:normal;font-variant-caps:normal;font-variant-numeric:normal;font-feature-settings:normal;text-align:start;writing-mode:lr-tb;text-anchor:start;fill:#ffffff;stroke-width:0.26458332"
         id="path4629"
         inkscape:connector-curvature="0" />
      <path
         d="m 87.084867,196.41752 q -1.192389,0 -1.820334,-0.66322 -0.620888,-0.66323 -0.620888,-1.88384 0,-0.60677 0.1905,-1.0795 0.1905,-0.47977 0.522111,-0.80433 0.331611,-0.33161 0.790222,-0.50094 0.458611,-0.16934 0.994833,-0.16934 0.310445,0 0.564445,0.0494 0.254,0.0423 0.4445,0.10583 0.1905,0.0564 0.3175,0.11995 0.127,0.0635 0.183444,0.0988 l -0.3175,0.889 q -0.225778,-0.11995 -0.529167,-0.20461 -0.296333,-0.0847 -0.677333,-0.0847 -0.254,0 -0.500944,0.0847 -0.239889,0.0847 -0.430389,0.27516 -0.183445,0.18345 -0.296334,0.47978 -0.112888,0.29633 -0.112888,0.71967 0,0.33866 0.07056,0.635 0.07761,0.28927 0.239889,0.50094 0.169333,0.21167 0.437444,0.33867 0.268112,0.11994 0.649112,0.11994 0.239888,0 0.430388,-0.0282 0.1905,-0.0282 0.338667,-0.0635 0.148167,-0.0423 0.261056,-0.0917 0.112889,-0.0494 0.204611,-0.0917 l 0.303389,0.88194 q -0.232834,0.14111 -0.656167,0.254 -0.423333,0.11289 -0.980722,0.11289 z"
         style="font-style:normal;font-variant:normal;font-weight:bold;font-stretch:normal;font-size:7.05555534px;font-family:Ubuntu;-inkscape-font-specification:'Ubuntu, Bold';font-variant-ligatures:normal;font-variant-caps:normal;font-variant-numeric:normal;font-feature-settings:normal;text-align:start;writing-mode:lr-tb;text-anchor:start;fill:#ffffff;stroke-width:0.26458332"
         id="path4631"
         inkscape:connector-curvature="0" />
      <path
         d="m 90.175532,193.87046 q 0,0.35984 0.08467,0.64911 0.09172,0.28928 0.254,0.50095 0.169334,0.20461 0.409223,0.3175 0.239888,0.11289 0.550333,0.11289 0.303389,0 0.543278,-0.11289 0.246944,-0.11289 0.409222,-0.3175 0.169333,-0.21167 0.254,-0.50095 0.09172,-0.28927 0.09172,-0.64911 0,-0.35983 -0.09172,-0.64911 -0.08467,-0.29633 -0.254,-0.50094 -0.162278,-0.21167 -0.409222,-0.32456 -0.239889,-0.11289 -0.543278,-0.11289 -0.310445,0 -0.550333,0.11995 -0.239889,0.11289 -0.409223,0.32455 -0.162277,0.20461 -0.254,0.50095 -0.08467,0.28928 -0.08467,0.64205 z m 3.732388,0 q 0,0.62795 -0.1905,1.10773 -0.183444,0.47272 -0.507999,0.79727 -0.324556,0.3175 -0.776112,0.47978 -0.4445,0.16228 -0.959555,0.16228 -0.500945,0 -0.945445,-0.16228 -0.4445,-0.16228 -0.776111,-0.47978 -0.331611,-0.32455 -0.522111,-0.79727 -0.1905,-0.47978 -0.1905,-1.10773 0,-0.62794 0.197556,-1.10066 0.197555,-0.47978 0.529167,-0.80434 0.338666,-0.32455 0.776111,-0.48683 0.4445,-0.16228 0.931333,-0.16228 0.500944,0 0.945444,0.16228 0.4445,0.16228 0.776111,0.48683 0.331612,0.32456 0.522111,0.80434 0.1905,0.47272 0.1905,1.10066 z"
         style="font-style:normal;font-variant:normal;font-weight:bold;font-stretch:normal;font-size:7.05555534px;font-family:Ubuntu;-inkscape-font-specification:'Ubuntu, Bold';font-variant-ligatures:normal;font-variant-caps:normal;font-variant-numeric:normal;font-feature-settings:normal;text-align:start;writing-mode:lr-tb;text-anchor:start;fill:#ffffff;stroke-width:0.26458332"
         id="path4633"
         inkscape:connector-curvature="0" />
      <path
         d="m 95.502477,195.76135 q 0,0.3175 -0.204611,0.48684 -0.197555,0.16227 -0.451555,0.16227 -0.254,0 -0.458611,-0.16227 -0.197556,-0.16934 -0.197556,-0.48684 0,-0.3175 0.197556,-0.47978 0.204611,-0.16933 0.458611,-0.16933 0.254,0 0.451555,0.16933 0.204611,0.16228 0.204611,0.47978 z"
         style="font-style:normal;font-variant:normal;font-weight:bold;font-stretch:normal;font-size:7.05555534px;font-family:Ubuntu;-inkscape-font-specification:'Ubuntu, Bold';font-variant-ligatures:normal;font-variant-caps:normal;font-variant-numeric:normal;font-feature-settings:normal;text-align:start;writing-mode:lr-tb;text-anchor:start;fill:#ffffff;stroke-width:0.26458332"
         id="path4635"
         inkscape:connector-curvature="0" />
    </g>
    <text
       xml:space="preserve"
       style="font-style:normal;font-variant:normal;font-weight:bold;font-stretch:normal;font-size:22.93055534px;line-height:1.25;font-family:Ubuntu;-inkscape-font-specification:'Ubuntu, Bold';font-variant-ligatures:normal;font-variant-caps:normal;font-variant-numeric:normal;font-feature-settings:normal;text-align:start;letter-spacing:0px;word-spacing:0px;writing-mode:lr-tb;text-anchor:start;fill:#ffffff;fill-opacity:1;stroke:none;stroke-width:0.26458332"
       x="12.974379"
       y="159.76259"
       id="text848"><tspan
         sodipodi:role="line"
         id="tspan846"
         x="12.974379"
         y="181.14516"
         style="fill:#ffffff;fill-opacity:1;stroke-width:0.26458332" /></text>
    <g
       transform="matrix(0.35277777,0,0,0.35277777,-9.384362,119.64048)"
       id="#fcfefeff">
      <path
         style="opacity:1;fill:#fcfefe;stroke:#fcfefe;stroke-width:0.09375"
         inkscape:connector-curvature="0"
         d="m 83.78,21.5 c 4.1,-1.13 9.14,-0.8 12.1,2.63 3.75,3.52 2.95,9.08 2.91,13.72 3.1,-3.98 5.62,-8.4 8.96,-12.18 4.71,-5.42 14.37,-4.67 18.39,1.2 2.37,3 1.63,7.01 1.68,10.55 79.08,0.14 158.15,0 237.23,0.09 8.96,-0.08 17.94,2.87 25.07,8.32 7.85,5.84 13.21,14.75 15.32,24.26 2.84,12.78 -1.14,26.76 -10.1,36.27 -7.4,8.21 -18.3,12.89 -29.29,13.21 -76.98,0.02 -153.97,-0.1 -230.95,0.06 -7.34,9.4 -18.95,16.03 -31.11,15.35 C 87.13,135.51 71.43,122.57 67.5,106.38 65.1,98.35 67.73,89.94 66.06,81.82 63.62,69.58 61.48,57.27 59.05,45.02 58.46,42 57.62,38.77 58.83,35.78 c 1.28,-3.99 5,-6.98 9.14,-7.51 3.01,-0.22 5.88,0.88 8.74,1.66 1.56,-3.33 3.55,-6.88 7.07,-8.43 m -2.58,6.55 c -2.57,6.07 -1.05,12.83 -2.17,19.17 -1.59,-4.88 -0.78,-11.43 -5.59,-14.61 -5.35,-3.82 -13.38,2.02 -11.97,8.25 2.49,13.13 5.12,26.24 7.33,39.43 3.27,-3.31 5.69,-7.3 8.41,-11.05 5.29,-7.38 10.44,-14.87 15.76,-22.23 1.22,-1.78 2.72,-3.64 2.63,-5.93 0.08,-3.87 0.39,-7.79 -0.16,-11.64 -1.48,-6.25 -11.61,-7.3 -14.24,-1.39 m 26.5,2.64 c -9.78,14.53 -19.88,28.84 -29.86,43.24 -3.16,4.7 -6.13,9.68 -7.47,15.23 -2.77,11.17 0.8,23.52 8.62,31.86 9.15,9.99 24.36,13.5 37.04,8.94 11.31,-4.06 20.19,-14.3 22.49,-26.11 0.48,-4.21 0.42,-8.49 0.06,-12.71 -0.77,-3.42 -4.29,-4.98 -6.93,-6.77 0.66,-2.89 1.77,-6.24 -0.17,-8.9 -5.18,-7.96 -14.58,-11.63 -23.42,-13.85 4.81,-7.32 9.97,-14.4 14.88,-21.66 2.21,-2.88 2.38,-6.84 1.34,-10.21 -1.59,-2.92 -4.87,-5 -8.25,-4.65 -3.74,-0.26 -6.43,2.79 -8.33,5.59 m 19.48,8.67 c -4.91,6.65 -9.56,13.49 -14.1,20.39 8.13,2.61 16.18,6.88 21.04,14.15 1.69,2.48 1.02,5.64 1.61,8.44 1.95,2.94 5.27,5.07 6.08,8.69 1.8,8.86 -1.15,17.76 -4.76,25.77 77.65,0.09 155.3,0.01 232.95,0.03 8,-0.29 15.47,-4.25 21.4,-9.43 8.28,-7.35 12.87,-18.4 13.08,-29.39 C 403.98,66.41 398.59,54.8 389.21,47.77 382.1,42.21 373.05,39.36 364.06,39.39 285.1,39.4 206.14,39.4 127.18,39.36 Z"
         id="path3" />
      <path
         style="opacity:1;fill:#fcfefe;stroke:#fcfefe;stroke-width:0.09375"
         inkscape:connector-curvature="0"
         d="m 150.5,50.55 c 8.44,-0.12 16.89,-0.13 25.33,-0.04 6.26,0.07 12.22,4.36 14.07,10.38 1.87,4.37 -0.15,8.99 -1.94,13.01 3.55,3.62 7.19,7.79 7.56,13.1 1.22,9.07 -6.23,18.33 -15.44,18.68 -9.87,0.05 -19.74,0.05 -29.6,-0.08 -0.05,-18.35 -0.06,-36.7 0.02,-55.05 m 10.73,11.16 c -0.01,3.01 0,6.01 0.03,9.01 4.84,-0.07 9.71,0.3 14.54,-0.15 4.03,-0.64 4.02,-7.54 0.17,-8.46 -4.86,-0.98 -9.83,-0.33 -14.74,-0.4 m 0.04,18.58 c -0.06,4.77 -0.09,9.53 -0.01,14.3 6.08,-0.15 12.22,0.47 18.26,-0.35 6.29,-1.86 5.54,-12.28 -0.68,-13.71 -5.84,-0.54 -11.72,-0.09 -17.57,-0.24 z"
         id="path5" />
      <path
         style="opacity:1;fill:#fcfefe;stroke:#fcfefe;stroke-width:0.09375"
         inkscape:connector-curvature="0"
         d="m 315.47,50.49 c 3.45,-0.04 6.91,-0.05 10.36,-0.03 0.31,3.26 0.51,6.53 0.52,9.8 3.43,0.02 6.86,0.06 10.3,0.11 0.03,3.49 0.03,6.99 0.01,10.48 -3.41,0.56 -6.87,0.74 -10.33,0.69 0.22,5.51 -0.63,11.16 0.57,16.59 2.85,6.28 10.33,7.63 16.54,7.19 0.16,3.41 0.5,6.87 -0.35,10.23 -4.55,0.16 -9.36,0.72 -13.64,-1.23 -7.9,-3.44 -14.26,-11.4 -14.08,-20.27 0.04,-11.19 -0.1,-22.37 0.1,-33.56 z"
         id="path7" />
      <path
         style="opacity:1;fill:#fcfefe;stroke:#fcfefe;stroke-width:0.09375"
         inkscape:connector-curvature="0"
         d="m 243.27,51.2 c 3.45,-0.69 6.98,-0.81 10.5,-0.65 1.17,11.8 0.06,23.66 0.67,35.49 0.04,3.72 2.86,7.08 6.35,8.17 3.28,0.77 6.81,0.78 9.95,-0.53 -2.34,-4.93 -3.43,-10.59 -2.02,-15.95 2.16,-10.04 11.89,-18.23 22.33,-17.57 12.75,-0.19 23.96,12.09 22.53,24.8 -0.88,13.48 -15.42,23.99 -28.51,20.12 -5.97,-0.89 -9.66,-5.8 -14.04,-9.33 -0.46,3.28 -0.42,6.59 -0.28,9.9 -3.55,0.05 -7.11,0.3 -10.63,-0.16 -9.45,-1.75 -16.93,-10.81 -16.86,-20.42 0,-11.29 0.01,-22.58 0.01,-33.87 m 43.17,20.48 c -9.23,3.12 -9.95,17.94 -1.19,22.07 7.22,3.7 16.99,-1.45 17.57,-9.62 1.01,-8.52 -8.42,-15.55 -16.38,-12.45 z"
         id="path9" />
      <path
         style="opacity:1;fill:#fcfefe;stroke:#fcfefe;stroke-width:0.09375"
         inkscape:connector-curvature="0"
         d="m 201.1,69.09 c 4.9,-6.64 13.7,-9.99 21.79,-8.66 10.22,1.62 18.69,11.1 18.8,21.51 0.01,7.87 0.03,15.75 -0.03,23.63 -4.04,0.07 -8.73,1.07 -11.89,-2.15 -5.32,1.92 -11.19,3.24 -16.74,1.49 -9.04,-2.35 -15.77,-10.82 -16.77,-20 -0.4,-5.62 1.53,-11.3 4.84,-15.82 m 14.33,2.52 c -7.57,1.82 -10.43,11.97 -6.25,18.12 3.5,5.78 12.09,6.6 17.35,2.87 5.81,-4.56 5.88,-14.61 0.05,-19.18 -3.12,-2.47 -7.42,-2.71 -11.15,-1.81 z"
         id="path11" />
      <path
         style="opacity:1;fill:#fcfefe;stroke:#fcfefe;stroke-width:0.09375"
         inkscape:connector-curvature="0"
         d="m 359.53,60.65 c 13.03,-3.31 26.65,7.35 28,20.4 1.03,12.84 -10.51,25.4 -23.54,24.69 -10.5,0.21 -20.37,-8.27 -21.61,-18.71 -0.35,-4.22 -0.45,-8.63 1.09,-12.65 2.6,-6.89 8.83,-12.25 16.06,-13.73 m 0.98,10.99 c -3.54,1 -6.08,4.16 -7.31,7.5 -2.73,6.93 2.99,16.18 10.74,15.67 7.6,0.84 14.52,-7.25 12.54,-14.64 -1.95,-6.55 -9.33,-10.91 -15.97,-8.53 z"
         id="path13" />
      <path
         style="opacity:1;fill:#fcfefe;stroke:#fcfefe;stroke-width:0.09375"
         inkscape:connector-curvature="0"
         d="m 87.26,93.94 c 1.22,-9.38 11.54,-16.42 20.72,-14.06 5.79,1.23 9.49,6.36 14.6,8.97 -1.43,5.03 0.02,10.55 -2.39,15.33 -2.79,6.19 -9.39,10.53 -16.23,10.3 -10.36,0.06 -18.79,-10.4 -16.7,-20.54 m 5.41,-5.2 c -4.66,6.6 -2.62,17.13 4.84,20.77 5.95,3.62 14.16,1.68 18.13,-3.96 3.47,-4.17 3.19,-9.8 3,-14.88 -3.45,-2.65 -6.42,-6.25 -10.73,-7.52 -5.59,-1.75 -11.96,0.88 -15.24,5.59 z"
         id="path15" />
      <path
         style="opacity:1;fill:#fcfefe;stroke:#fcfefe;stroke-width:0.09375"
         inkscape:connector-curvature="0"
         d="m 100.41,88.5 c 5.38,-3.3 12.8,1.42 13.23,7.41 0.87,5.53 -4.26,10.77 -9.7,10.69 -3.92,-0.59 -8.01,-3.34 -8.69,-7.49 -0.92,-4.16 1.11,-8.95 5.16,-10.61 z"
         id="path17" />
    </g>
  </g>
</svg>
